<?xml version="1.0" standalone="no"?><!DOCTYPE svg PUBLIC "-//W3C//DTD SVG 1.1//EN" "http://www.w3.org/Graphics/SVG/1.1/DTD/svg11.dtd"><svg t="1657609585961" class="icon" viewBox="0 0 1024 1024" version="1.1" xmlns="http://www.w3.org/2000/svg" p-id="5604" xmlns:xlink="http://www.w3.org/1999/xlink" width="200" height="200"><defs><style type="text/css">@font-face { font-family: feedback-iconfont; src: url("//at.alicdn.com/t/font_1031158_u69w8yhxdu.woff2?t=1630033759944") format("woff2"), url("//at.alicdn.com/t/font_1031158_u69w8yhxdu.woff?t=1630033759944") format("woff"), url("//at.alicdn.com/t/font_1031158_u69w8yhxdu.ttf?t=1630033759944") format("truetype"); }
</style></defs><path d="M882.688 425.301333a539.989333 539.989333 0 0 0-741.376 0l-39.594667-38.912a593.92 593.92 0 0 1 819.2 0z" fill="#EAEAEA" p-id="5605"></path><path d="M882.688 434.176a6.144 6.144 0 0 1-5.461333 0 531.114667 531.114667 0 0 0-730.453334 0 8.192 8.192 0 0 1-11.605333 0l-39.594667-42.325333a8.192 8.192 0 0 1 0-6.144 6.144 6.144 0 0 1 0-5.461334 595.285333 595.285333 0 0 1 416.426667-166.570666 595.285333 595.285333 0 0 1 415.744 166.570666 6.144 6.144 0 0 1 0 5.461334 8.192 8.192 0 0 1 0 6.144l-40.277333 39.594666a10.24 10.24 0 0 1-4.778667 2.730667zM512 268.970667a546.133333 546.133333 0 0 1 370.688 144.725333l27.306667-27.306667a586.410667 586.410667 0 0 0-795.989334 0l27.306667 27.306667A546.133333 546.133333 0 0 1 512 268.970667z" fill="#EAEAEA" p-id="5606"></path><path d="M236.202667 520.192A402.773333 402.773333 0 0 1 498.346667 409.6h14.336a400.725333 400.725333 0 0 1 273.066666 108.544l-34.816 39.594667a348.842667 348.842667 0 0 0-238.250666-92.842667h-12.288A350.208 350.208 0 0 0 273.066667 558.421333z" fill="#EAEAEA" p-id="5607"></path><path d="M273.066667 566.613333h-6.144l-37.546667-38.229333a8.874667 8.874667 0 0 1 0-12.288A409.6 409.6 0 0 1 498.346667 402.773333h13.653333a409.6 409.6 0 0 1 281.941333 111.274667 8.874667 8.874667 0 0 1 0 6.144 8.192 8.192 0 0 1 0 6.144l-37.546666 37.546667a8.192 8.192 0 0 1-11.605334 0 341.333333 341.333333 0 0 0-232.106666-91.477334h-12.288A341.333333 341.333333 0 0 0 279.893333 564.565333z m-25.258667-45.738666L273.066667 546.133333a360.448 360.448 0 0 1 225.28-90.112h13.653333A360.448 360.448 0 0 1 750.933333 546.133333l25.258667-25.941333a393.216 393.216 0 0 0-263.509333-100.352H498.346667a395.264 395.264 0 0 0-249.856 101.034667zM369.322667 653.312a219.136 219.136 0 0 1 113.322666-51.882667 221.866667 221.866667 0 0 1 30.037334 0 216.405333 216.405333 0 0 1 130.389333 44.373334l11.605333 9.557333-36.181333 36.181333L614.4 682.666667a160.426667 160.426667 0 0 0-99.669333-34.133334h-21.845334a159.744 159.744 0 0 0-83.285333 41.642667z" fill="#EAEAEA" p-id="5608"></path><path d="M409.6 699.050667a8.874667 8.874667 0 0 1-6.144 0l-36.864-36.864a6.144 6.144 0 0 1 0-6.144 7.509333 7.509333 0 0 1 0-6.144 216.405333 216.405333 0 0 1 118.101333-53.930667 221.866667 221.866667 0 0 1 165.888 43.690667l12.288 10.24a10.922667 10.922667 0 0 1 3.413334 6.144 10.24 10.24 0 0 1 0 6.144l-36.181334 36.181333a8.192 8.192 0 0 1-11.605333 0l-6.144-4.778667a157.013333 157.013333 0 0 0-116.053333-30.72 150.869333 150.869333 0 0 0-86.698667 34.133334 8.874667 8.874667 0 0 1 0 2.048z m-24.576-45.056l24.576 24.576a177.493333 177.493333 0 0 1 82.602667-34.816 173.397333 173.397333 0 0 1 122.197333 34.133333l24.576-24.576-4.778667-3.413333a204.8 204.8 0 0 0-256 3.413333zM477.866667 762.538667a63.488 63.488 0 0 1 68.266666 0l-33.450666 33.450666z" fill="#EAEAEA" p-id="5609"></path><path d="M512 804.864a8.192 8.192 0 0 1-6.144 0l-33.450667-33.450667a9.557333 9.557333 0 0 1 0-6.826666 8.874667 8.874667 0 0 1 4.096-6.826667 73.045333 73.045333 0 0 1 76.458667 0 11.605333 11.605333 0 0 1 4.096 6.826667 9.557333 9.557333 0 0 1 0 6.826666l-33.450667 33.450667a7.509333 7.509333 0 0 1-11.605333 0z m-19.114667-40.277333l19.114667 19.797333 19.114667-19.797333a52.565333 52.565333 0 0 0-38.229334 0z" fill="#EAEAEA" p-id="5610"></path><path d="M369.322667 653.312a219.136 219.136 0 0 1 113.322666-51.882667 221.866667 221.866667 0 0 1 30.037334 0 216.405333 216.405333 0 0 1 130.389333 44.373334l11.605333 9.557333-36.181333 36.181333L614.4 682.666667a160.426667 160.426667 0 0 0-99.669333-34.133334h-21.845334a159.744 159.744 0 0 0-83.285333 41.642667z" fill="#5FBAFF" p-id="5611"></path><path d="M409.6 699.050667a8.874667 8.874667 0 0 1-6.144 0l-36.864-36.864a6.144 6.144 0 0 1 0-6.144 7.509333 7.509333 0 0 1 0-6.144 216.405333 216.405333 0 0 1 118.101333-53.930667 221.866667 221.866667 0 0 1 165.888 43.690667l12.288 10.24a10.922667 10.922667 0 0 1 3.413334 6.144 10.24 10.24 0 0 1 0 6.144l-36.181334 36.181333a8.192 8.192 0 0 1-11.605333 0l-6.144-4.778667a157.013333 157.013333 0 0 0-116.053333-30.72 150.869333 150.869333 0 0 0-86.698667 34.133334 8.874667 8.874667 0 0 1 0 2.048z m-24.576-45.056l24.576 24.576a177.493333 177.493333 0 0 1 82.602667-34.816 173.397333 173.397333 0 0 1 122.197333 34.133333l24.576-24.576-4.778667-3.413333a204.8 204.8 0 0 0-256 3.413333zM477.866667 762.538667a63.488 63.488 0 0 1 68.266666 0l-33.450666 33.450666z" fill="#5FBAFF" p-id="5612"></path><path d="M512 804.864a8.192 8.192 0 0 1-6.144 0l-33.450667-33.450667a9.557333 9.557333 0 0 1 0-6.826666 8.874667 8.874667 0 0 1 4.096-6.826667 73.045333 73.045333 0 0 1 76.458667 0 11.605333 11.605333 0 0 1 4.096 6.826667 9.557333 9.557333 0 0 1 0 6.826666l-33.450667 33.450667a7.509333 7.509333 0 0 1-11.605333 0z m-19.114667-40.277333l19.114667 19.797333 19.114667-19.797333a52.565333 52.565333 0 0 0-38.229334 0z" fill="#5FBAFF" p-id="5613"></path></svg>